<svg width="24" height="24" version="1.1" viewBox="0 0 6.35 6.35"
     xmlns="http://www.w3.org/2000/svg">
    <g transform="matrix(.15267 0 0 .15267 -.026688 -7.7834)" fill="#6aba9c"
       fill-rule="evenodd" stroke-width="20.478">
        <path d="m41.767 56.549s-3.2132 23.859-3.9162 26.606c-0.70303 2.7475-2.7338 5.8468-8.2641 6.0869-4.14 0.1797-18.236 0-18.236 0s12.64-0.5095 18.627-2.8166c2.0797-0.8014 3.997-1.8976 4.9256-4.5218 1.2417-3.5091 6.8635-25.354 6.8635-25.354z"/>
        <g transform="matrix(.30518 0 0 .30518 -277.27 -135.83)"
           clip-rule="evenodd">
            <path class="st1"
                  d="m986.1 667.51 14.977 0.0303c1.6405 0 3.6456 1.2152 3.6456 3.038 0 2.8861-1.4278 9.3267-2.0658 11.909s-2.4304 9.4786-2.4912 11.787h-22.785c-2.5823 0-2.795-1.0937-2.7342-3.3418 0-2.157 2.5823-3.9494 4.8608-3.9494l15.706-0.0303 2.5215-12.122h-20.355c-6.8659 0-11.757 1.8228-14.188 6.471-1.6101 3.0988-4.3443 12.152-4.3443 16.618 0 8.5672 6.4406 8.8102 14.886 8.8102h38.583l3.1595-15.98 3.2507-15.281c0.8811-4.2532 2.9469-9.752 1.6405-15.646-0.8202-3.7064-8.5671-4.7393-13.792-4.7393l-17.833 0.0303z"/>
            <path class="st1"
                  d="m930.92 706.73h14.856c0.36456-2.4608 0.82026-4.8608 1.3367-7.3216 0.48609-2.3696 4.4355-21.205 5.2557-22.876 4.0102-8.0203 7.8685-8.9925 19.565-8.9925l7.3824 0.0303 2.9469-12.486h-40.345z"/>
        </g>
        <path d="m0.1748 87.003s3.2132-23.859 3.9162-26.606c0.70303-2.7474 2.7338-5.8468 8.2641-6.0868 4.14-0.1797 18.236 0 18.236 0s-12.64 0.5094-18.627 2.8166c-2.0797 0.8014-3.997 1.8975-4.9256 4.5218-1.2417 3.509-6.8635 25.354-6.8635 25.354z"/>
    </g>
</svg>
